# xmcd
#
# Track frame offsets:
#	150
#	20459
#	37044
#	68470
#	92425
#	119083
#	132004
#	157318
#	175746
#	195731
#	215984
#	236801
#
# Disc length: 3403 seconds
#
# Revision: 0
# Processed by: cddbd v1.5.1PL2 Copyright (c) Steve Scherf et al.
# Submitted via: dBpowerAMP V4.0
#
DISCID=ad0d490c
DTITLE=Carl Weathersby - Hold On
DYEAR=2004
DGENRE=Blues
TTITLE0=I'm Back Again
TTITLE1=Leave It Alone
TTITLE2=Angel Of Mercy
TTITLE3=My Baby
TTITLE4=Feels Like Rain
TTITLE5=Nothing Hurts A Man
TTITLE6=Willingly
TTITLE7=Love Ain't Fair
TTITLE8=Hold On
TTITLE9=Too Far Gone
TTITLE10=Freedom
TTITLE11=When Push Comes To Shove
EXTD=
EXTT0=
EXTT1=
EXTT2=
EXTT3=
EXTT4=
EXTT5=
EXTT6=
EXTT7=
EXTT8=
EXTT9=
EXTT10=
EXTT11=
PLAYORDER=
